0
SECTION
2
HEADER
9
$INSUNITS
70
4
9
$ACADVER
1
AC1014
9
$HANDSEED
5
FFFF
0
ENDSEC
0
SECTION
2
TABLES
0
TABLE
2
VPORT
5
8
100
AcDbSymbolTable
0
ENDTAB
0
TABLE
2
LTYPE
5
5
100
AcDbSymbolTable
0
LTYPE
5
14
100
AcDbSymbolTableRecord
100
AcDbLinetypeTableRecord
2
BYBLOCK
70
0
0
LTYPE
5
15
100
AcDbSymbolTableRecord
100
AcDbLinetypeTableRecord
2
BYLAYER
70
0
0
ENDTAB
0
TABLE
2
LAYER
5
2
100
AcDbSymbolTable
70
2
0
LAYER
5
50
100
AcDbSymbolTableRecord
100
AcDbLayerTableRecord
2
0
70
0
6
CONTINUOUS
0
ENDTAB
0
TABLE
2
STYLE
5
3
100
AcDbSymbolTable
70
1
0
STYLE
5
11
100
AcDbSymbolTableRecord
100
AcDbTextStyleTableRecord
2
STANDARD
70
0
0
ENDTAB
0
TABLE
2
VIEW
5
6
100
AcDbSymbolTable
70
0
0
ENDTAB
0
TABLE
2
UCS
5
7
100
AcDbSymbolTable
70
0
0
ENDTAB
0
TABLE
2
APPID
5
9
100
AcDbSymbolTable
70
2
0
APPID
5
12
100
AcDbSymbolTableRecord
100
AcDbRegAppTableRecord
2
ACAD
70
0
0
ENDTAB
0
TABLE
2
DIMSTYLE
5
A
100
AcDbSymbolTable
70
1
0
ENDTAB
0
TABLE
2
BLOCK_RECORD
5
1
100
AcDbSymbolTable
70
1
0
BLOCK_RECORD
5
1F
100
AcDbSymbolTableRecord
100
AcDbBlockTableRecord
2
*MODEL_SPACE
0
BLOCK_RECORD
5
1B
100
AcDbSymbolTableRecord
100
AcDbBlockTableRecord
2
*PAPER_SPACE
0
ENDTAB
0
ENDSEC
0
SECTION
2
BLOCKS
0
BLOCK
5
20
100
AcDbEntity
100
AcDbBlockBegin
2
*MODEL_SPACE
0
ENDBLK
5
21
100
AcDbEntity
100
AcDbBlockEnd
0
BLOCK
5
1C
100
AcDbEntity
100
AcDbBlockBegin
2
*PAPER_SPACE
0
ENDBLK
5
1D
100
AcDbEntity
100
AcDbBlockEnd
0
ENDSEC
0
SECTION
2
ENTITIES
0
LWPOLYLINE
5
100
100
AcDbEntity
8
0
100
AcDbPolyline
90
28
70
1
43
0.0
10
-132
20
22.000000000000025
42
-0.99999999999999989
10
-131.99999999999997
20
8.000000000000016
10
-147
20
8.0000000000000249
10
-166.78885438199984
20
17.89442719099991
42
0.11643382146585415
10
-167.2360679774998
20
18
10
-179.00000000000171
20
18
42
0.41421356237310997
10
-180.00000000000173
20
16.99999999999995
10
-180.00000000000003
20
-16.999999999999886
42
0.41421356237308071
10
-179.00000000000003
20
-17.99999999999984
10
-142.00000000000003
20
-18.000000000000007
42
-0.99999999999999989
10
-142
20
-32
10
-174.27932189569339
20
-31.999999999999993
42
0.35779586610249309
10
-175.2601003576963
20
-32.804875402700688
10
-182.00814957340003
20
-66.723414750899906
42
0.13849165031249633
10
-181.96533676482406
20
-67.265267531350531
42
0.035950998131083836
10
-170.45311845869361
20
-92.637651134441811
10
-183.4247080970421
20
-100.12680190395976
42
-0.42264835902454478
10
-184.80473062382708
20
-99.735708445154756
42
-0.25262034800737004
10
-184.80473062382242
20
99.735708445152028
42
-0.42264835902453513
10
-183.42470809704224
20
100.12680190395955
10
-170.45311845869381
20
92.637651134441541
42
0.035950998131082483
10
-181.96533676482409
20
67.265267531350403
42
0.13849165031248961
10
-182.00814957340003
20
66.723414750899806
10
-175.2601003576963
20
32.804875402700716
42
0.35779586610249675
10
-174.27932189569339
20
32
10
-163
20
32.000000000000007
10
-143.21114561800019
20
22.105572809000122
42
0.11643382146585397
10
-142.76393202250023
20
22.000000000000043
0
LWPOLYLINE
5
101
100
AcDbEntity
8
0
100
AcDbPolyline
90
4
70
1
43
0.0
10
-133
20
18.100000000000001
42
-0.99999999999999989
10
-133
20
11.899999999999999
10
-143
20
11.900000000000002
42
-0.99999999999999989
10
-143
20
18.099999999999998
0
LWPOLYLINE
5
102
100
AcDbEntity
8
0
100
AcDbPolyline
90
4
70
1
43
0.0
10
-165
20
28.100000000000001
42
-0.99999999999999989
10
-165
20
21.899999999999999
10
-196
20
21.900000000000045
10
-196
20
28.100000000000001
0
LWPOLYLINE
5
103
100
AcDbEntity
8
0
100
AcDbPolyline
90
4
70
1
43
0.0
10
-142.99999999999997
20
-21.899999999999999
42
-0.99999999999999989
10
-143
20
-28.100000000000001
10
-153
20
-28.100000000000005
42
-0.99999999999999989
10
-153
20
-21.899999999999995
0
LWPOLYLINE
5
104
100
AcDbEntity
8
0
100
AcDbPolyline
90
4
70
1
43
0.0
10
-165
20
-21.899999999999999
42
-0.99999999999999989
10
-165
20
-28.100000000000001
10
-196
20
-28.100000000000019
10
-196
20
-21.899999999999999
0
CIRCLE
5
105
100
AcDbEntity
8
0
100
AcDbCircle
10
-183.07417298140322
20
-85.36888887162128
30
0
40
1.6000000000000003
210
0
220
-0
230
1
0
CIRCLE
5
106
100
AcDbEntity
8
0
100
AcDbCircle
10
-183.07417298140325
20
85.368888871621238
30
0
40
1.6000000000000003
210
0
220
-0
230
1
0
CIRCLE
5
107
100
AcDbEntity
8
0
100
AcDbCircle
10
-202.00000000000003
20
-1.7763568394002505e-14
30
0
40
1.6000000000000003
210
0
220
-0
230
1
0
ENDSEC
0
SECTION
2
OBJECTS
0
DICTIONARY
5
C
100
AcDbDictionary
3
ACAD_GROUP
350
D
3
ACAD_MLINESTYLE
350
17
0
DICTIONARY
5
D
100
AcDbDictionary
0
DICTIONARY
5
1A
330
C
100
AcDbDictionary
0
DICTIONARY
5
17
100
AcDbDictionary
0
ENDSEC
0
EOF
