0
SECTION
2
HEADER
9
$INSUNITS
70
4
9
$ACADVER
1
AC1014
9
$HANDSEED
5
FFFF
0
ENDSEC
0
SECTION
2
TABLES
0
TABLE
2
VPORT
5
8
100
AcDbSymbolTable
0
ENDTAB
0
TABLE
2
LTYPE
5
5
100
AcDbSymbolTable
0
LTYPE
5
14
100
AcDbSymbolTableRecord
100
AcDbLinetypeTableRecord
2
BYBLOCK
70
0
0
LTYPE
5
15
100
AcDbSymbolTableRecord
100
AcDbLinetypeTableRecord
2
BYLAYER
70
0
0
ENDTAB
0
TABLE
2
LAYER
5
2
100
AcDbSymbolTable
70
2
0
LAYER
5
50
100
AcDbSymbolTableRecord
100
AcDbLayerTableRecord
2
0
70
0
6
CONTINUOUS
0
ENDTAB
0
TABLE
2
STYLE
5
3
100
AcDbSymbolTable
70
1
0
STYLE
5
11
100
AcDbSymbolTableRecord
100
AcDbTextStyleTableRecord
2
STANDARD
70
0
0
ENDTAB
0
TABLE
2
VIEW
5
6
100
AcDbSymbolTable
70
0
0
ENDTAB
0
TABLE
2
UCS
5
7
100
AcDbSymbolTable
70
0
0
ENDTAB
0
TABLE
2
APPID
5
9
100
AcDbSymbolTable
70
2
0
APPID
5
12
100
AcDbSymbolTableRecord
100
AcDbRegAppTableRecord
2
ACAD
70
0
0
ENDTAB
0
TABLE
2
DIMSTYLE
5
A
100
AcDbSymbolTable
70
1
0
ENDTAB
0
TABLE
2
BLOCK_RECORD
5
1
100
AcDbSymbolTable
70
1
0
BLOCK_RECORD
5
1F
100
AcDbSymbolTableRecord
100
AcDbBlockTableRecord
2
*MODEL_SPACE
0
BLOCK_RECORD
5
1B
100
AcDbSymbolTableRecord
100
AcDbBlockTableRecord
2
*PAPER_SPACE
0
ENDTAB
0
ENDSEC
0
SECTION
2
BLOCKS
0
BLOCK
5
20
100
AcDbEntity
100
AcDbBlockBegin
2
*MODEL_SPACE
0
ENDBLK
5
21
100
AcDbEntity
100
AcDbBlockEnd
0
BLOCK
5
1C
100
AcDbEntity
100
AcDbBlockBegin
2
*PAPER_SPACE
0
ENDBLK
5
1D
100
AcDbEntity
100
AcDbBlockEnd
0
ENDSEC
0
SECTION
2
ENTITIES
0
CIRCLE
5
100
100
AcDbEntity
8
0
100
AcDbCircle
10
-202.00000000000003
20
-1.7763568394002505e-14
30
0
40
1.6000000000000003
210
0
220
-0
230
1
0
CIRCLE
5
101
100
AcDbEntity
8
0
100
AcDbCircle
10
-183.07417298140325
20
85.368888871621238
30
0
40
1.6000000000000003
210
0
220
-0
230
1
0
CIRCLE
5
102
100
AcDbEntity
8
0
100
AcDbCircle
10
-183.07417298140322
20
-85.36888887162128
30
0
40
1.6000000000000003
210
0
220
-0
230
1
0
LWPOLYLINE
5
103
100
AcDbEntity
8
0
100
AcDbPolyline
90
4
70
1
43
0.0
10
-165
20
28.100000000000001
42
-0.99999999999999989
10
-165
20
21.899999999999999
10
-196
20
21.900000000000048
10
-196
20
28.100000000000001
0
LWPOLYLINE
5
104
100
AcDbEntity
8
0
100
AcDbPolyline
90
4
70
1
43
0.0
10
-142.99999999999997
20
-21.899999999999999
42
-0.99999999999999989
10
-143
20
-28.100000000000001
10
-153
20
-28.100000000000005
42
-0.99999999999999989
10
-153
20
-21.899999999999995
0
LWPOLYLINE
5
105
100
AcDbEntity
8
0
100
AcDbPolyline
90
4
70
1
43
0.0
10
-142.99999999999997
20
28.100000000000001
42
-0.99999999999999989
10
-143
20
21.899999999999999
10
-153.00000000000006
20
21.899999999999999
42
-0.99999999999999989
10
-153
20
28.100000000000001
0
LWPOLYLINE
5
106
100
AcDbEntity
8
0
100
AcDbPolyline
90
4
70
1
43
0.0
10
-165
20
-21.899999999999999
42
-0.99999999999999989
10
-165
20
-28.100000000000001
10
-196
20
-28.100000000000019
10
-196
20
-21.899999999999999
0
LWPOLYLINE
5
107
100
AcDbEntity
8
0
100
AcDbPolyline
90
20
70
1
43
0.0
10
-142
20
-18.000000000000007
42
-0.99999999999999989
10
-142
20
-32
10
-174.02040629523549
20
-31.999999999999996
42
0.43679671686577559
10
-175.01748284692806
20
-33.076409096741273
10
-170.50121925142975
20
-92.009974920478115
42
-0.28855098557477615
10
-170.99829580312232
20
-92.952409421003807
10
-183.4247080970421
20
-100.12680190395976
42
-0.42264835902454478
10
-184.80473062382237
20
-99.735708445152241
42
-0.25262034800738564
10
-184.80473062382242
20
99.735708445152028
42
-0.42264835902453513
10
-183.42470809704224
20
100.12680190395955
10
-170.99829580312232
20
92.952409421003523
42
-0.28855098557472936
10
-170.50121925142977
20
92.009974920477902
10
-175.01748284692806
20
33.07640909674128
42
0.43679671686577559
10
-174.02040629523549
20
32.000000000000007
10
-141.99999999999997
20
32
42
-0.99999999999999989
10
-141.99999999999997
20
18
10
-179.00000000000119
20
18
42
0.41421356237310414
10
-180.00000000000117
20
16.999999999999964
10
-180.00000000000003
20
-16.999999999999872
42
0.41421356237308526
10
-179.00000000000003
20
-17.99999999999984
0
ENDSEC
0
SECTION
2
OBJECTS
0
DICTIONARY
5
C
100
AcDbDictionary
3
ACAD_GROUP
350
D
3
ACAD_MLINESTYLE
350
17
0
DICTIONARY
5
D
100
AcDbDictionary
0
DICTIONARY
5
1A
330
C
100
AcDbDictionary
0
DICTIONARY
5
17
100
AcDbDictionary
0
ENDSEC
0
EOF
