0
SECTION
2
HEADER
9
$INSUNITS
70
4
9
$ACADVER
1
AC1014
9
$HANDSEED
5
FFFF
0
ENDSEC
0
SECTION
2
TABLES
0
TABLE
2
VPORT
5
8
100
AcDbSymbolTable
0
ENDTAB
0
TABLE
2
LTYPE
5
5
100
AcDbSymbolTable
0
LTYPE
5
14
100
AcDbSymbolTableRecord
100
AcDbLinetypeTableRecord
2
BYBLOCK
70
0
0
LTYPE
5
15
100
AcDbSymbolTableRecord
100
AcDbLinetypeTableRecord
2
BYLAYER
70
0
0
ENDTAB
0
TABLE
2
LAYER
5
2
100
AcDbSymbolTable
70
2
0
LAYER
5
50
100
AcDbSymbolTableRecord
100
AcDbLayerTableRecord
2
0
70
0
6
CONTINUOUS
0
ENDTAB
0
TABLE
2
STYLE
5
3
100
AcDbSymbolTable
70
1
0
STYLE
5
11
100
AcDbSymbolTableRecord
100
AcDbTextStyleTableRecord
2
STANDARD
70
0
0
ENDTAB
0
TABLE
2
VIEW
5
6
100
AcDbSymbolTable
70
0
0
ENDTAB
0
TABLE
2
UCS
5
7
100
AcDbSymbolTable
70
0
0
ENDTAB
0
TABLE
2
APPID
5
9
100
AcDbSymbolTable
70
2
0
APPID
5
12
100
AcDbSymbolTableRecord
100
AcDbRegAppTableRecord
2
ACAD
70
0
0
ENDTAB
0
TABLE
2
DIMSTYLE
5
A
100
AcDbSymbolTable
70
1
0
ENDTAB
0
TABLE
2
BLOCK_RECORD
5
1
100
AcDbSymbolTable
70
1
0
BLOCK_RECORD
5
1F
100
AcDbSymbolTableRecord
100
AcDbBlockTableRecord
2
*MODEL_SPACE
0
BLOCK_RECORD
5
1B
100
AcDbSymbolTableRecord
100
AcDbBlockTableRecord
2
*PAPER_SPACE
0
ENDTAB
0
ENDSEC
0
SECTION
2
BLOCKS
0
BLOCK
5
20
100
AcDbEntity
100
AcDbBlockBegin
2
*MODEL_SPACE
0
ENDBLK
5
21
100
AcDbEntity
100
AcDbBlockEnd
0
BLOCK
5
1C
100
AcDbEntity
100
AcDbBlockBegin
2
*PAPER_SPACE
0
ENDBLK
5
1D
100
AcDbEntity
100
AcDbBlockEnd
0
ENDSEC
0
SECTION
2
ENTITIES
0
LWPOLYLINE
5
100
100
AcDbEntity
8
0
100
AcDbPolyline
90
4
70
1
43
0.0
10
132.00000000000006
20
138.00000000000011
10
127.99999999999999
20
138.00000000000009
10
127.99999999999999
20
122.00000000000011
10
132
20
122.00000000000011
0
LWPOLYLINE
5
101
100
AcDbEntity
8
0
100
AcDbPolyline
90
4
70
1
43
0.0
10
-128.00000000000006
20
137.99999999999994
10
-132.00000000000006
20
137.99999999999994
10
-132.00000000000006
20
121.99999999999996
10
-128.00000000000006
20
121.99999999999996
0
LWPOLYLINE
5
102
100
AcDbEntity
8
0
100
AcDbPolyline
90
16
70
1
43
0.0
10
-40.000000000000085
20
-9.9999999999961062
42
-0.41421356237310153
10
-36.999999999999943
20
-6.9999999999961986
10
37.000000000000156
20
-6.9999999999998463
42
-0.41421356237308005
10
40.000000000000007
20
-9.9999999999998419
10
40.000000000000036
20
-21.999999999999751
42
0.41421356237309503
10
43.000000000000043
20
-24.999999999999748
10
102.00000000000061
20
-24.999999999999609
42
0.41421356237309548
10
105.00000000000063
20
-21.999999999999602
10
105
20
132.00000000000014
42
0.41421356237309331
10
102
20
135.00000000000011
10
-101.99999999999996
20
134.99999999999997
42
0.41421356237309503
10
-104.99999999999997
20
131.99999999999997
10
-105
20
-22.000000000000114
42
0.41421356237309331
10
-102.00000000000001
20
-25.00000000000011
10
-43.000000000000497
20
-25.000000000000568
42
0.41421356237308854
10
-40.000000000000469
20
-22.000000000000661
0
LWPOLYLINE
5
103
100
AcDbEntity
8
0
100
AcDbPolyline
90
24
70
1
43
0.0
10
189.80439602231252
20
89.85706010439668
42
-0.18553525868231288
10
189.96622619091903
20
87.710819949867741
10
186.79210716115904
20
77.137432132676736
42
-0.3311555540316839
10
183.91878562080521
20
75
10
162
20
74.999999999999986
42
0.41421356237309592
10
159
20
71.999999999999986
10
159
20
-72
42
0.41421356237309503
10
162
20
-75
10
180.90052515125541
20
-75.000000000000028
42
-0.53914576967781513
10
183.65535548350809
20
-79.187817258883172
42
-0.6578200914591108
10
-183.65535548350806
20
-79.187817258883243
42
-0.53914576967781613
10
-180.90052515125541
20
-75
10
-162
20
-74.999999999999986
42
0.41421356237309503
10
-159
20
-72
10
-159
20
72.000000000000014
42
0.41421356237309503
10
-162
20
75
10
-183.91878562080439
20
75.000000000000014
42
-0.33115555403167096
10
-186.79210716115819
20
77.137432132676608
10
-189.96622619091877
20
87.710819949868068
42
-0.18553525868231999
10
-189.80439602231232
20
89.857060104397021
42
-0.048889922225807583
10
-168.74537030686196
20
125.00000000000009
10
-68.30169750515843
20
260.59523809523807
42
-0.50371752330406572
10
68.301697505158387
20
260.59523809523807
10
168.74537030686199
20
125.00000000000007
42
-0.048889922225808027
0
CIRCLE
5
104
100
AcDbEntity
8
0
100
AcDbCircle
10
-84.000000000000028
20
170.99999999999977
30
0
40
1.6000000000000003
210
0
220
-0
230
1
0
CIRCLE
5
105
100
AcDbEntity
8
0
100
AcDbCircle
10
-12.999999999999993
20
255.99999999999997
30
0
40
1.6000000000000003
210
0
220
-0
230
1
0
CIRCLE
5
106
100
AcDbEntity
8
0
100
AcDbCircle
10
24.5
20
196.49999999999994
30
0
40
1.6000000000000003
210
0
220
-0
230
1
0
CIRCLE
5
107
100
AcDbEntity
8
0
100
AcDbCircle
10
45.000000000000014
20
173.49999999999997
30
0
40
1.6000000000000003
210
0
220
-0
230
1
0
CIRCLE
5
108
100
AcDbEntity
8
0
100
AcDbCircle
10
45
20
196.5
30
0
40
1.6000000000000003
210
0
220
-0
230
1
0
CIRCLE
5
109
100
AcDbEntity
8
0
100
AcDbCircle
10
24.500000000000021
20
173.49999999999997
30
0
40
1.6000000000000003
210
0
220
-0
230
1
0
CIRCLE
5
110
100
AcDbEntity
8
0
100
AcDbCircle
10
13.000000000000007
20
255.99999999999997
30
0
40
1.6000000000000003
210
0
220
-0
230
1
0
CIRCLE
5
111
100
AcDbEntity
8
0
100
AcDbCircle
10
-47
20
171.00000000000017
30
0
40
1.6000000000000003
210
0
220
-0
230
1
0
CIRCLE
5
112
100
AcDbEntity
8
0
100
AcDbCircle
10
130
20
-30.000000000000004
30
0
40
2.1000000000000001
210
0
220
-0
230
1
0
CIRCLE
5
113
100
AcDbEntity
8
0
100
AcDbCircle
10
-130
20
-30.000000000000004
30
0
40
2.1000000000000001
210
0
220
-0
230
1
0
LWPOLYLINE
5
114
100
AcDbEntity
8
0
100
AcDbPolyline
90
4
70
1
43
0.0
10
-15
20
175
10
-15
20
189
10
-23
20
189
10
-23
20
175
0
LWPOLYLINE
5
115
100
AcDbEntity
8
0
100
AcDbPolyline
90
4
70
1
43
0.0
10
90
20
-55
10
96
20
-55
10
96
20
-35
10
90
20
-35
0
LWPOLYLINE
5
116
100
AcDbEntity
8
0
100
AcDbPolyline
90
4
70
1
43
0.0
10
-96
20
-55
10
-90
20
-55
10
-90
20
-35
10
-96
20
-35
0
CIRCLE
5
117
100
AcDbEntity
8
0
100
AcDbCircle
10
-92.000000000000028
20
195
30
0
40
14.000000000000004
210
0
220
-0
230
1
0
LWPOLYLINE
5
118
100
AcDbEntity
8
0
100
AcDbPolyline
90
4
70
1
43
0.0
10
27.749999999999737
20
174.60000000000005
10
27.749999999999737
20
170.60000000000002
10
41.749999999999744
20
170.60000000000005
10
41.749999999999744
20
174.60000000000005
0
LWPOLYLINE
5
119
100
AcDbEntity
8
0
100
AcDbPolyline
90
4
70
1
43
0.0
10
78.400000000000105
20
176.5
10
81.600000000000094
20
176.5
10
81.600000000000094
20
178.96539534011299
42
13.865377912429381
10
78.400000000000091
20
178.96539534011296
0
LWPOLYLINE
5
120
100
AcDbEntity
8
0
100
AcDbPolyline
90
4
70
1
43
0.0
10
-60.000000000000028
20
189
10
-60.000000000000028
20
201
10
-68.000000000000028
20
201
10
-68.000000000000028
20
189
0
CIRCLE
5
121
100
AcDbEntity
8
0
100
AcDbCircle
10
-28.000000000000004
20
216
30
0
40
3.1499999999999999
210
0
220
-0
230
1
0
CIRCLE
5
122
100
AcDbEntity
8
0
100
AcDbCircle
10
28.000000000000011
20
244.00000000000003
30
0
40
3.1499999999999999
210
0
220
-0
230
1
0
CIRCLE
5
123
100
AcDbEntity
8
0
100
AcDbCircle
10
-28.000000000000004
20
244.00000000000003
30
0
40
3.1499999999999999
210
0
220
-0
230
1
0
CIRCLE
5
124
100
AcDbEntity
8
0
100
AcDbCircle
10
28.000000000000004
20
216
30
0
40
3.1499999999999999
210
0
220
-0
230
1
0
LWPOLYLINE
5
125
100
AcDbEntity
8
0
100
AcDbPolyline
90
4
70
1
43
0.0
10
-74.000000000000014
20
147.85000000000008
10
-66
20
147.85000000000008
42
0.99999999999999989
10
-66
20
152.15000000000006
10
-74.000000000000014
20
152.15000000000006
42
0.99999999999999989
0
LWPOLYLINE
5
126
100
AcDbEntity
8
0
100
AcDbPolyline
90
4
70
1
43
0.0
10
66
20
147.85000000000002
10
74.000000000000014
20
147.85000000000002
42
0.99999999999999989
10
74.000000000000014
20
152.15000000000003
10
66
20
152.15000000000003
42
0.99999999999999989
0
LWPOLYLINE
5
127
100
AcDbEntity
8
0
100
AcDbPolyline
90
4
70
1
43
0.0
10
-132.15000231434141
20
104.00000609998244
10
-132.15000431478251
20
96.000006099982443
42
0.99999999999999989
10
-127.85000172972354
20
96.000006099982443
10
-127.85000295700586
20
103.99834373518968
42
1.0003866712496723
0
LWPOLYLINE
5
128
100
AcDbEntity
8
0
100
AcDbPolyline
90
4
70
1
43
0.0
10
132.15000000000001
20
96.000000000000014
10
132.15000000000001
20
104.00000000000003
42
0.99999999999999989
10
127.85000000000002
20
104.00000000000003
10
127.85000000000002
20
96.000000000000014
42
0.99999999999999989
0
LWPOLYLINE
5
129
100
AcDbEntity
8
0
100
AcDbPolyline
90
4
70
1
43
0.0
10
2.1499999999999924
20
195.99999999999994
10
2.1499999999999932
20
203.99999999999994
42
0.99999999999999989
10
-2.1500000000000048
20
203.99999999999994
10
-2.1500000000000048
20
195.99999999999994
42
0.99999999999999989
0
CIRCLE
5
130
100
AcDbEntity
8
0
100
AcDbCircle
10
0
20
-40
30
0
40
1.6000000000000003
210
0
220
-0
230
1
0
CIRCLE
5
131
100
AcDbEntity
8
0
100
AcDbCircle
10
-33.000000000000007
20
-55
30
0
40
1.6000000000000003
210
0
220
-0
230
1
0
CIRCLE
5
132
100
AcDbEntity
8
0
100
AcDbCircle
10
33.000000000000007
20
-13.499999999999996
30
0
40
1.6000000000000003
210
0
220
-0
230
1
0
CIRCLE
5
133
100
AcDbEntity
8
0
100
AcDbCircle
10
-65
20
-54.500000000000021
30
0
40
1.6000000000000003
210
0
220
-0
230
1
0
CIRCLE
5
134
100
AcDbEntity
8
0
100
AcDbCircle
10
114.5
20
130
30
0
40
1.6000000000000003
210
0
220
-0
230
1
0
CIRCLE
5
135
100
AcDbEntity
8
0
100
AcDbCircle
10
1.2831960872750218e-14
20
287
30
0
40
1.6000000000000003
210
0
220
-0
230
1
0
CIRCLE
5
136
100
AcDbEntity
8
0
100
AcDbCircle
10
130.00000000000003
20
15.600000000000001
30
0
40
1.6000000000000003
210
0
220
-0
230
1
0
CIRCLE
5
137
100
AcDbEntity
8
0
100
AcDbCircle
10
-130
20
-15.599999999999998
30
0
40
1.6000000000000003
210
0
220
-0
230
1
0
CIRCLE
5
138
100
AcDbEntity
8
0
100
AcDbCircle
10
110.95000000000002
20
15.600000000000001
30
0
40
1.6000000000000003
210
0
220
-0
230
1
0
CIRCLE
5
139
100
AcDbEntity
8
0
100
AcDbCircle
10
149.05000000000001
20
-15.600000000000001
30
0
40
1.6000000000000003
210
0
220
-0
230
1
0
CIRCLE
5
140
100
AcDbEntity
8
0
100
AcDbCircle
10
-110.95
20
15.599999999999998
30
0
40
1.6000000000000003
210
0
220
-0
230
1
0
CIRCLE
5
141
100
AcDbEntity
8
0
100
AcDbCircle
10
-149.04999999999998
20
15.599999999999998
30
0
40
1.6000000000000003
210
0
220
-0
230
1
0
CIRCLE
5
142
100
AcDbEntity
8
0
100
AcDbCircle
10
-166.27687752661222
20
-96.000000000000028
30
0
40
1.6000000000000003
210
0
220
-0
230
1
0
CIRCLE
5
143
100
AcDbEntity
8
0
100
AcDbCircle
10
166.27687752661214
20
-96.000000000000014
30
0
40
1.6000000000000003
210
0
220
-0
230
1
0
CIRCLE
5
144
100
AcDbEntity
8
0
100
AcDbCircle
10
0
20
-192.00000000000003
30
0
40
1.6000000000000003
210
0
220
-0
230
1
0
CIRCLE
5
145
100
AcDbEntity
8
0
100
AcDbCircle
10
-149.04999999999998
20
-15.599999999999998
30
0
40
1.6000000000000003
210
0
220
-0
230
1
0
CIRCLE
5
146
100
AcDbEntity
8
0
100
AcDbCircle
10
-110.95
20
-15.599999999999998
30
0
40
1.6000000000000003
210
0
220
-0
230
1
0
CIRCLE
5
147
100
AcDbEntity
8
0
100
AcDbCircle
10
110.95000000000002
20
-15.600000000000001
30
0
40
1.6000000000000003
210
0
220
-0
230
1
0
CIRCLE
5
148
100
AcDbEntity
8
0
100
AcDbCircle
10
149.05000000000001
20
15.600000000000001
30
0
40
1.6000000000000003
210
0
220
-0
230
1
0
CIRCLE
5
149
100
AcDbEntity
8
0
100
AcDbCircle
10
130.00000000000003
20
-15.600000000000001
30
0
40
1.6000000000000003
210
0
220
-0
230
1
0
CIRCLE
5
150
100
AcDbEntity
8
0
100
AcDbCircle
10
-130
20
15.599999999999998
30
0
40
1.6000000000000003
210
0
220
-0
230
1
0
CIRCLE
5
151
100
AcDbEntity
8
0
100
AcDbCircle
10
85.682826255373286
20
223.69135803678824
30
0
40
1.6000000000000003
210
0
220
-0
230
1
0
CIRCLE
5
152
100
AcDbEntity
8
0
100
AcDbCircle
10
-85.682826255373229
20
223.69135803678816
30
0
40
1.6000000000000003
210
0
220
-0
230
1
0
CIRCLE
5
153
100
AcDbEntity
8
0
100
AcDbCircle
10
65
20
-54.5
30
0
40
1.6000000000000003
210
0
220
-0
230
1
0
CIRCLE
5
154
100
AcDbEntity
8
0
100
AcDbCircle
10
-114.5
20
130
30
0
40
1.6000000000000003
210
0
220
-0
230
1
0
CIRCLE
5
155
100
AcDbEntity
8
0
100
AcDbCircle
10
-33.000000000000007
20
-13.499999999999996
30
0
40
1.6000000000000003
210
0
220
-0
230
1
0
CIRCLE
5
156
100
AcDbEntity
8
0
100
AcDbCircle
10
33.000000000000007
20
-55
30
0
40
1.6000000000000003
210
0
220
-0
230
1
0
CIRCLE
5
157
100
AcDbEntity
8
0
100
AcDbCircle
10
0
20
-125
30
0
40
1.6000000000000003
210
0
220
-0
230
1
0
ENDSEC
0
SECTION
2
OBJECTS
0
DICTIONARY
5
C
100
AcDbDictionary
3
ACAD_GROUP
350
D
3
ACAD_MLINESTYLE
350
17
0
DICTIONARY
5
D
100
AcDbDictionary
0
DICTIONARY
5
1A
330
C
100
AcDbDictionary
0
DICTIONARY
5
17
100
AcDbDictionary
0
ENDSEC
0
EOF
