0
SECTION
2
HEADER
9
$INSUNITS
70
4
9
$ACADVER
1
AC1014
9
$HANDSEED
5
FFFF
0
ENDSEC
0
SECTION
2
TABLES
0
TABLE
2
VPORT
5
8
100
AcDbSymbolTable
0
ENDTAB
0
TABLE
2
LTYPE
5
5
100
AcDbSymbolTable
0
LTYPE
5
14
100
AcDbSymbolTableRecord
100
AcDbLinetypeTableRecord
2
BYBLOCK
70
0
0
LTYPE
5
15
100
AcDbSymbolTableRecord
100
AcDbLinetypeTableRecord
2
BYLAYER
70
0
0
ENDTAB
0
TABLE
2
LAYER
5
2
100
AcDbSymbolTable
70
2
0
LAYER
5
50
100
AcDbSymbolTableRecord
100
AcDbLayerTableRecord
2
0
70
0
6
CONTINUOUS
0
ENDTAB
0
TABLE
2
STYLE
5
3
100
AcDbSymbolTable
70
1
0
STYLE
5
11
100
AcDbSymbolTableRecord
100
AcDbTextStyleTableRecord
2
STANDARD
70
0
0
ENDTAB
0
TABLE
2
VIEW
5
6
100
AcDbSymbolTable
70
0
0
ENDTAB
0
TABLE
2
UCS
5
7
100
AcDbSymbolTable
70
0
0
ENDTAB
0
TABLE
2
APPID
5
9
100
AcDbSymbolTable
70
2
0
APPID
5
12
100
AcDbSymbolTableRecord
100
AcDbRegAppTableRecord
2
ACAD
70
0
0
ENDTAB
0
TABLE
2
DIMSTYLE
5
A
100
AcDbSymbolTable
70
1
0
ENDTAB
0
TABLE
2
BLOCK_RECORD
5
1
100
AcDbSymbolTable
70
1
0
BLOCK_RECORD
5
1F
100
AcDbSymbolTableRecord
100
AcDbBlockTableRecord
2
*MODEL_SPACE
0
BLOCK_RECORD
5
1B
100
AcDbSymbolTableRecord
100
AcDbBlockTableRecord
2
*PAPER_SPACE
0
ENDTAB
0
ENDSEC
0
SECTION
2
BLOCKS
0
BLOCK
5
20
100
AcDbEntity
100
AcDbBlockBegin
2
*MODEL_SPACE
0
ENDBLK
5
21
100
AcDbEntity
100
AcDbBlockEnd
0
BLOCK
5
1C
100
AcDbEntity
100
AcDbBlockBegin
2
*PAPER_SPACE
0
ENDBLK
5
1D
100
AcDbEntity
100
AcDbBlockEnd
0
ENDSEC
0
SECTION
2
ENTITIES
0
LWPOLYLINE
5
100
100
AcDbEntity
8
0
100
AcDbPolyline
90
4
70
1
43
0.0
10
-97.00000000006716
20
152.00000000001569
10
-113.00000000006713
20
152.00000000001566
10
-113.00000000006716
20
148.00000000001569
10
-97.000000000067132
20
148.00000000001569
0
LWPOLYLINE
5
101
100
AcDbEntity
8
0
100
AcDbPolyline
90
4
70
1
43
0.0
10
112.99999999996655
20
-68.000000000062684
10
96.999999999966548
20
-68.00000000006267
10
96.999999999966548
20
-72.00000000006267
10
112.99999999996655
20
-72.000000000062656
0
LWPOLYLINE
5
102
100
AcDbEntity
8
0
100
AcDbPolyline
90
4
70
1
43
0.0
10
-128.00000000001216
20
67.999999999903523
10
-132.00000000001216
20
67.999999999903537
10
-132.00000000001216
20
51.999999999903537
10
-128.00000000001216
20
51.999999999903544
0
LWPOLYLINE
5
103
100
AcDbEntity
8
0
100
AcDbPolyline
90
4
70
1
43
0.0
10
112.99999999991675
20
152.00000000001265
10
96.999999999916753
20
152.00000000001262
10
96.999999999916753
20
148.00000000001262
10
112.99999999991675
20
148.00000000001265
0
LWPOLYLINE
5
104
100
AcDbEntity
8
0
100
AcDbPolyline
90
4
70
1
43
0.0
10
131.99999999998806
20
67.99999999990149
10
127.99999999998805
20
67.99999999990149
10
127.99999999998805
20
51.999999999901505
10
131.99999999998806
20
51.999999999901505
0
LWPOLYLINE
5
105
100
AcDbEntity
8
0
100
AcDbPolyline
90
4
70
1
43
0.0
10
-97.0000000000217
20
-68.000000000039208
10
-113.0000000000217
20
-68.000000000039208
10
-113.0000000000217
20
-72.000000000039222
10
-97.000000000021657
20
-72.000000000039208
0
LWPOLYLINE
5
106
100
AcDbEntity
8
0
100
AcDbPolyline
90
34
70
1
43
0.0
10
-35.742640687119298
20
157.00000000000006
42
-0.19891236737965454
10
-33.621320343559674
20
156.12132034355969
10
-30.878679656440372
20
153.37867965644043
42
0.19891236737965662
10
-28.757359312880737
20
152.50000000000006
10
28.757359312880723
20
152.50000000000006
42
0.19891236737965856
10
30.878679656440369
20
153.37867965644043
10
33.621320343559617
20
156.12132034355969
42
-0.19891236737964899
10
35.742640687119263
20
157.00000000000006
10
143.52986369913839
20
157.00000000000003
42
-0.23763607023582919
10
145.94051184637894
20
155.78571428571473
10
168.74537030686406
20
125.00000000004434
42
-0.048889922225863781
10
189.8043960223431
20
89.857060104397476
42
-0.18553525868230863
10
189.96622619094947
20
87.710819949868409
10
186.7921071611882
20
77.137432132676452
42
-0.33115555403165364
10
183.9187856208344
20
75.000000000000014
10
162
20
74.999999999999986
42
0.41421356237309503
10
159
20
72
10
159
20
-72
42
0.41421356237309503
10
162
20
-75
10
163.33095236359824
20
-75.000000000000014
42
-0.55161517046683373
10
166.03809522045356
20
-79.29281767955797
42
-0.63062143769729062
10
-166.0380952204535
20
-79.292817679558013
42
-0.5516151704668355
10
-163.33095236359827
20
-75
10
-162
20
-74.999999999999986
42
0.41421356237309503
10
-159
20
-72
10
-159
20
72.000000000000014
42
0.41421356237309503
10
-162
20
75
10
-183.91878562083042
20
75.000000000000028
42
-0.33115555403172037
10
-186.79210716118436
20
77.137432132677077
10
-189.96622619094575
20
87.710819949877191
42
-0.18553525868228748
10
-189.80439602233918
20
89.857060104405804
42
-0.048889922225852873
10
-168.74537030686398
20
125.00000000004437
10
-145.94051184637891
20
155.7857142857147
42
-0.23763607023583355
10
-143.52986369913833
20
157.00000000000006
0
CIRCLE
5
107
100
AcDbEntity
8
0
100
AcDbCircle
10
92.758328259738562
20
-134.66213737124835
30
0
40
2.1499999999999999
210
0
220
-0
230
1
0
CIRCLE
5
108
100
AcDbEntity
8
0
100
AcDbCircle
10
-92.758331800195307
20
-134.66214350304108
30
0
40
2.1499999999999999
210
0
220
-0
230
1
0
CIRCLE
5
109
100
AcDbEntity
8
0
100
AcDbCircle
10
30.999999999999996
20
134.00000000000003
30
0
40
2.1499999999999999
210
0
220
-0
230
1
0
CIRCLE
5
110
100
AcDbEntity
8
0
100
AcDbCircle
10
-15
20
48.000000000000007
30
0
40
2.1499999999999999
210
0
220
-0
230
1
0
CIRCLE
5
111
100
AcDbEntity
8
0
100
AcDbCircle
10
30.999999999999996
20
48.000000000000007
30
0
40
2.1499999999999999
210
0
220
-0
230
1
0
CIRCLE
5
112
100
AcDbEntity
8
0
100
AcDbCircle
10
-15.000000000000007
20
134.00000000000003
30
0
40
2.1499999999999999
210
0
220
-0
230
1
0
CIRCLE
5
113
100
AcDbEntity
8
0
100
AcDbCircle
10
-78.901925339649921
20
-142.6621435030508
30
0
40
2.1499999999999999
210
0
220
-0
230
1
0
CIRCLE
5
114
100
AcDbEntity
8
0
100
AcDbCircle
10
78.901924247635236
20
-142.66214161208416
30
0
40
2.1499999999999999
210
0
220
-0
230
1
0
CIRCLE
5
115
100
AcDbEntity
8
0
100
AcDbCircle
10
105
20
142.50000000002007
30
0
40
1.6000000000000003
210
0
220
-0
230
1
0
CIRCLE
5
116
100
AcDbEntity
8
0
100
AcDbCircle
10
-105
20
-63.000000000050427
30
0
40
1.6000000000000003
210
0
220
-0
230
1
0
CIRCLE
5
117
100
AcDbEntity
8
0
100
AcDbCircle
10
123.00000000001407
20
60
30
0
40
1.6000000000000003
210
0
220
-0
230
1
0
CIRCLE
5
118
100
AcDbEntity
8
0
100
AcDbCircle
10
105
20
-63.000000000050413
30
0
40
1.6000000000000003
210
0
220
-0
230
1
0
CIRCLE
5
119
100
AcDbEntity
8
0
100
AcDbCircle
10
-122.99999999998607
20
60
30
0
40
1.6000000000000003
210
0
220
-0
230
1
0
CIRCLE
5
120
100
AcDbEntity
8
0
100
AcDbCircle
10
-105
20
142.50000000002007
30
0
40
1.6000000000000003
210
0
220
-0
230
1
0
LWPOLYLINE
5
121
100
AcDbEntity
8
0
100
AcDbPolyline
90
4
70
1
43
0.0
10
112.47857131602132
20
93.597921957203383
10
118.90644741289211
20
101.25836638838865
10
114.31018075418052
20
105.11509204651148
10
107.88230465730975
20
97.454647615326223
0
LWPOLYLINE
5
122
100
AcDbEntity
8
0
100
AcDbPolyline
90
4
70
1
43
0.0
10
-20.000000000000586
20
-143.99999999998653
10
-26.000000000000021
20
-143.99999999998653
10
-26.000000000000021
20
-153.99999999997823
10
-20.000000000004281
20
-153.99999999998653
0
LWPOLYLINE
5
123
100
AcDbEntity
8
0
100
AcDbPolyline
90
4
70
1
43
0.0
10
18.366108245917779
20
-103.89727038005931
10
23.214204448387285
20
-95.151073308668757
10
17.091866498413882
20
-91.757405966940127
42
6.8541019662497273
10
12.243770295944374
20
-100.50360303833061
0
LWPOLYLINE
5
124
100
AcDbEntity
8
0
100
AcDbPolyline
90
4
70
1
43
0.0
10
25.999999999999982
20
-154.00000000001498
10
25.999999999999982
20
-144.00000000001498
10
19.999999999999414
20
-144.00000000001498
10
19.999999999995715
20
-154.00000000001498
0
LWPOLYLINE
5
125
100
AcDbEntity
8
0
100
AcDbPolyline
90
4
70
1
43
0.0
10
83.668403029439489
20
130.82659643399458
10
79.072136370727918
20
134.68332209211741
10
72.644260273857142
20
127.02287766093212
10
77.240526932568685
20
123.16615200280927
0
LWPOLYLINE
5
126
100
AcDbEntity
8
0
100
AcDbPolyline
90
4
70
1
43
0.0
10
-72.644260273678299
20
127.02287766103431
10
-79.072136370538416
20
134.68332209222856
10
-83.668403029255444
20
130.82659643411222
10
-77.240526932395312
20
123.16615200291794
0
LWPOLYLINE
5
127
100
AcDbEntity
8
0
100
AcDbPolyline
90
4
70
1
43
0.0
10
-103.04490703256702
20
-103.89295998599721
10
-106.48636565067015
20
-98.978047720260363
10
-114.67788609355739
20
-104.71381208376032
10
-111.23642747545416
20
-109.62872434949722
0
LWPOLYLINE
5
128
100
AcDbEntity
8
0
100
AcDbPolyline
90
4
70
1
43
0.0
10
129.42942310458906
20
-66.211965948861675
10
137.62094354747495
20
-71.947730312377928
10
141.06240216558501
20
-67.0328180466459
10
132.87088172269912
20
-61.297053683129683
0
LWPOLYLINE
5
129
100
AcDbEntity
8
0
100
AcDbPolyline
90
4
70
1
43
0.0
10
111.23642747530022
20
-109.62872434965369
10
114.67788609341014
20
-104.71381208392148
10
106.48636565052415
20
-98.978047720405456
10
103.04490703241412
20
-103.89295998613748
0
LWPOLYLINE
5
130
100
AcDbEntity
8
0
100
AcDbPolyline
90
4
70
1
43
0.0
10
-137.62094354757613
20
-71.947730312184504
10
-129.42942310468902
20
-66.211965948684579
10
-132.87088172279215
20
-61.297053682947734
10
-141.06240216567929
20
-67.032818046447716
0
LWPOLYLINE
5
131
100
AcDbEntity
8
0
100
AcDbPolyline
90
4
70
1
43
0.0
10
-114.31018075403261
20
105.11509204667217
10
-118.90644741274969
20
101.25836638855576
10
-112.47857131588957
20
93.597921957361507
10
-107.88230465717254
20
97.454647615477924
0
CIRCLE
5
132
100
AcDbEntity
8
0
100
AcDbCircle
10
40
20
-17
30
0
40
1.6000000000000003
210
0
220
-0
230
1
0
CIRCLE
5
133
100
AcDbEntity
8
0
100
AcDbCircle
10
66
20
-45.500000000000007
30
0
40
1.6000000000000003
210
0
220
-0
230
1
0
CIRCLE
5
134
100
AcDbEntity
8
0
100
AcDbCircle
10
-30.000000000000007
20
5
30
0
40
1.6000000000000003
210
0
220
-0
230
1
0
CIRCLE
5
135
100
AcDbEntity
8
0
100
AcDbCircle
10
30.000000000000014
20
-54.999999999999986
30
0
40
1.6000000000000003
210
0
220
-0
230
1
0
CIRCLE
5
136
100
AcDbEntity
8
0
100
AcDbCircle
10
60
20
40
30
0
40
1.6000000000000003
210
0
220
-0
230
1
0
CIRCLE
5
137
100
AcDbEntity
8
0
100
AcDbCircle
10
95
20
20
30
0
40
1.6000000000000003
210
0
220
-0
230
1
0
CIRCLE
5
138
100
AcDbEntity
8
0
100
AcDbCircle
10
-122.46068054104612
20
-104.05951048041615
30
0
40
1.6000000000000003
210
0
220
-0
230
1
0
CIRCLE
5
139
100
AcDbEntity
8
0
100
AcDbCircle
10
122.46068054089972
20
-104.05951048058832
30
0
40
1.6000000000000003
210
0
220
-0
230
1
0
CIRCLE
5
140
100
AcDbEntity
8
0
100
AcDbCircle
10
-114.33668419655149
20
112.92529675381878
30
0
40
1.6000000000000003
210
0
220
-0
230
1
0
CIRCLE
5
141
100
AcDbEntity
8
0
100
AcDbCircle
10
14.99999999999998
20
-160.00000000001054
30
0
40
1.6000000000000003
210
0
220
-0
230
1
0
CIRCLE
5
142
100
AcDbEntity
8
0
100
AcDbCircle
10
91.355350903154587
20
132.20892504427036
30
0
40
1.6000000000000003
210
0
220
-0
230
1
0
CIRCLE
5
143
100
AcDbEntity
8
0
100
AcDbCircle
10
-77
20
39.5
30
0
40
1.6000000000000003
210
0
220
-0
230
1
0
CIRCLE
5
144
100
AcDbEntity
8
0
100
AcDbCircle
10
-45
20
-20
30
0
40
1.6000000000000003
210
0
220
-0
230
1
0
CIRCLE
5
145
100
AcDbEntity
8
0
100
AcDbCircle
10
80
20
-45
30
0
40
1.6000000000000003
210
0
220
-0
230
1
0
CIRCLE
5
146
100
AcDbEntity
8
0
100
AcDbCircle
10
-60
20
-45
30
0
40
1.6000000000000003
210
0
220
-0
230
1
0
CIRCLE
5
147
100
AcDbEntity
8
0
100
AcDbCircle
10
-104.15064284915276
20
-130.39420505546568
30
0
40
1.6000000000000003
210
0
220
-0
230
1
0
CIRCLE
5
148
100
AcDbEntity
8
0
100
AcDbCircle
10
-49.84936897042126
20
-136.34161248618554
30
0
40
1.6000000000000003
210
0
220
-0
230
1
0
CIRCLE
5
149
100
AcDbEntity
8
0
100
AcDbCircle
10
49.849362899844259
20
-136.3416427341613
30
0
40
1.6000000000000003
210
0
220
-0
230
1
0
CIRCLE
5
150
100
AcDbEntity
8
0
100
AcDbCircle
10
104.15063126881384
20
-130.39418499819175
30
0
40
1.6000000000000003
210
0
220
-0
230
1
0
CIRCLE
5
151
100
AcDbEntity
8
0
100
AcDbCircle
10
31
20
-160
30
0
40
1.6000000000000003
210
0
220
-0
230
1
0
CIRCLE
5
152
100
AcDbEntity
8
0
100
AcDbCircle
10
-25
20
-103
30
0
40
1.6000000000000003
210
0
220
-0
230
1
0
CIRCLE
5
153
100
AcDbEntity
8
0
100
AcDbCircle
10
25
20
-103
30
0
40
1.6000000000000003
210
0
220
-0
230
1
0
CIRCLE
5
154
100
AcDbEntity
8
0
100
AcDbCircle
10
-31
20
-160
30
0
40
1.6000000000000003
210
0
220
-0
230
1
0
CIRCLE
5
155
100
AcDbEntity
8
0
100
AcDbCircle
10
93.150625437665099
20
-111.34162948155058
30
0
40
1.6000000000000003
210
0
220
-0
230
1
0
CIRCLE
5
156
100
AcDbEntity
8
0
100
AcDbCircle
10
60.849368730993014
20
-155.39419825080248
30
0
40
1.6000000000000003
210
0
220
-0
230
1
0
CIRCLE
5
157
100
AcDbEntity
8
0
100
AcDbCircle
10
-60.849357151079957
20
-155.39417819333804
30
0
40
1.6000000000000003
210
0
220
-0
230
1
0
CIRCLE
5
158
100
AcDbEntity
8
0
100
AcDbCircle
10
-93.150654668507286
20
-111.34163934834544
30
0
40
1.6000000000000003
210
0
220
-0
230
1
0
CIRCLE
5
159
100
AcDbEntity
8
0
100
AcDbCircle
10
-102
20
-45
30
0
40
1.6000000000000003
210
0
220
-0
230
1
0
CIRCLE
5
160
100
AcDbEntity
8
0
100
AcDbCircle
10
122
20
-45
30
0
40
1.6000000000000003
210
0
220
-0
230
1
0
CIRCLE
5
161
100
AcDbEntity
8
0
100
AcDbCircle
10
-77
20
-20
30
0
40
1.6000000000000003
210
0
220
-0
230
1
0
CIRCLE
5
162
100
AcDbEntity
8
0
100
AcDbCircle
10
-45
20
39.5
30
0
40
1.6000000000000003
210
0
220
-0
230
1
0
CIRCLE
5
163
100
AcDbEntity
8
0
100
AcDbCircle
10
114.33668419671039
20
112.92529675365799
30
0
40
1.6000000000000003
210
0
220
-0
230
1
0
CIRCLE
5
164
100
AcDbEntity
8
0
100
AcDbCircle
10
-15.00000000000002
20
-159.99999999998946
30
0
40
1.6000000000000003
210
0
220
-0
230
1
0
CIRCLE
5
165
100
AcDbEntity
8
0
100
AcDbCircle
10
-91.355350902968567
20
132.20892504439885
30
0
40
1.6000000000000003
210
0
220
-0
230
1
0
CIRCLE
5
166
100
AcDbEntity
8
0
100
AcDbCircle
10
139.66797363144838
20
-79.484949151930635
30
0
40
1.6000000000000003
210
0
220
-0
230
1
0
CIRCLE
5
167
100
AcDbEntity
8
0
100
AcDbCircle
10
-139.6679736315603
20
-79.484949151734313
30
0
40
1.6000000000000003
210
0
220
-0
230
1
0
CIRCLE
5
168
100
AcDbEntity
8
0
100
AcDbCircle
10
60
20
20.000000000000007
30
0
40
1.6000000000000003
210
0
220
-0
230
1
0
CIRCLE
5
169
100
AcDbEntity
8
0
100
AcDbCircle
10
95
20
40
30
0
40
1.6000000000000003
210
0
220
-0
230
1
0
CIRCLE
5
170
100
AcDbEntity
8
0
100
AcDbCircle
10
30
20
5.0000000000000178
30
0
40
1.6000000000000003
210
0
220
-0
230
1
0
CIRCLE
5
171
100
AcDbEntity
8
0
100
AcDbCircle
10
-29.999999999999986
20
-55.000000000000007
30
0
40
1.6000000000000003
210
0
220
-0
230
1
0
CIRCLE
5
172
100
AcDbEntity
8
0
100
AcDbCircle
10
40
20
-45.500000000000007
30
0
40
1.6000000000000003
210
0
220
-0
230
1
0
CIRCLE
5
173
100
AcDbEntity
8
0
100
AcDbCircle
10
66
20
-17
30
0
40
1.6000000000000003
210
0
220
-0
230
1
0
ENDSEC
0
SECTION
2
OBJECTS
0
DICTIONARY
5
C
100
AcDbDictionary
3
ACAD_GROUP
350
D
3
ACAD_MLINESTYLE
350
17
0
DICTIONARY
5
D
100
AcDbDictionary
0
DICTIONARY
5
1A
330
C
100
AcDbDictionary
0
DICTIONARY
5
17
100
AcDbDictionary
0
ENDSEC
0
EOF
