0
SECTION
2
HEADER
9
$INSUNITS
70
4
9
$ACADVER
1
AC1014
9
$HANDSEED
5
FFFF
0
ENDSEC
0
SECTION
2
TABLES
0
TABLE
2
VPORT
5
8
100
AcDbSymbolTable
0
ENDTAB
0
TABLE
2
LTYPE
5
5
100
AcDbSymbolTable
0
LTYPE
5
14
100
AcDbSymbolTableRecord
100
AcDbLinetypeTableRecord
2
BYBLOCK
70
0
0
LTYPE
5
15
100
AcDbSymbolTableRecord
100
AcDbLinetypeTableRecord
2
BYLAYER
70
0
0
ENDTAB
0
TABLE
2
LAYER
5
2
100
AcDbSymbolTable
70
2
0
LAYER
5
50
100
AcDbSymbolTableRecord
100
AcDbLayerTableRecord
2
0
70
0
6
CONTINUOUS
0
ENDTAB
0
TABLE
2
STYLE
5
3
100
AcDbSymbolTable
70
1
0
STYLE
5
11
100
AcDbSymbolTableRecord
100
AcDbTextStyleTableRecord
2
STANDARD
70
0
0
ENDTAB
0
TABLE
2
VIEW
5
6
100
AcDbSymbolTable
70
0
0
ENDTAB
0
TABLE
2
UCS
5
7
100
AcDbSymbolTable
70
0
0
ENDTAB
0
TABLE
2
APPID
5
9
100
AcDbSymbolTable
70
2
0
APPID
5
12
100
AcDbSymbolTableRecord
100
AcDbRegAppTableRecord
2
ACAD
70
0
0
ENDTAB
0
TABLE
2
DIMSTYLE
5
A
100
AcDbSymbolTable
70
1
0
ENDTAB
0
TABLE
2
BLOCK_RECORD
5
1
100
AcDbSymbolTable
70
1
0
BLOCK_RECORD
5
1F
100
AcDbSymbolTableRecord
100
AcDbBlockTableRecord
2
*MODEL_SPACE
0
BLOCK_RECORD
5
1B
100
AcDbSymbolTableRecord
100
AcDbBlockTableRecord
2
*PAPER_SPACE
0
ENDTAB
0
ENDSEC
0
SECTION
2
BLOCKS
0
BLOCK
5
20
100
AcDbEntity
100
AcDbBlockBegin
2
*MODEL_SPACE
0
ENDBLK
5
21
100
AcDbEntity
100
AcDbBlockEnd
0
BLOCK
5
1C
100
AcDbEntity
100
AcDbBlockBegin
2
*PAPER_SPACE
0
ENDBLK
5
1D
100
AcDbEntity
100
AcDbBlockEnd
0
ENDSEC
0
SECTION
2
ENTITIES
0
CIRCLE
5
100
100
AcDbEntity
8
0
100
AcDbCircle
10
-50
20
230
30
0
40
1.6000000000000003
210
0
220
-0
230
1
0
CIRCLE
5
101
100
AcDbEntity
8
0
100
AcDbCircle
10
50
20
185
30
0
40
1.6000000000000003
210
0
220
-0
230
1
0
CIRCLE
5
102
100
AcDbEntity
8
0
100
AcDbCircle
10
50
20
230
30
0
40
1.6000000000000003
210
0
220
-0
230
1
0
CIRCLE
5
103
100
AcDbEntity
8
0
100
AcDbCircle
10
-50
20
185
30
0
40
1.6000000000000003
210
0
220
-0
230
1
0
LWPOLYLINE
5
104
100
AcDbEntity
8
0
100
AcDbPolyline
90
4
70
1
43
0.0
10
128.00000000000006
20
137.9999999999998
10
132.0000000000002
20
137.9999999999998
10
132.00000000000011
20
121.99999999999982
10
128.00000000000006
20
121.99999999999982
0
LWPOLYLINE
5
105
100
AcDbEntity
8
0
100
AcDbPolyline
90
4
70
1
43
0.0
10
-132.00000000000003
20
137.99999999999997
10
-127.99999999999996
20
137.99999999999997
10
-127.99999999999996
20
122
10
-132.00000000000003
20
122
0
LWPOLYLINE
5
106
100
AcDbEntity
8
0
100
AcDbPolyline
90
24
70
1
43
0.0
10
189.96622619091903
20
87.710819949867741
42
0.18553525868231291
10
189.80439602231255
20
89.857060104396695
42
0.048889922225808014
10
168.74537030686216
20
124.99999999999997
10
68.301697505158415
20
260.59523809523807
42
0.50371752330406572
10
-68.301697505158415
20
260.59523809523807
10
-168.74537030686196
20
125.00000000000009
42
0.04888992222580759
10
-189.80439602231226
20
89.857060104397192
42
0.18553525868231999
10
-189.96622619091877
20
87.710819949868068
10
-186.79210716115819
20
77.137432132676608
42
0.33115555403167096
10
-183.91878562080439
20
75.000000000000014
10
-162
20
75.000000000000014
42
-0.41421356237309503
10
-159
20
72.000000000000014
10
-159
20
-72
42
-0.41421356237309503
10
-162
20
-74.999999999999986
10
-180.90052515125541
20
-75
42
0.53914576967781613
10
-183.65535548350806
20
-79.187817258883243
42
0.6578200914591108
10
183.65535548350806
20
-79.187817258883243
42
0.53914576967781513
10
180.90052515125541
20
-75.000000000000028
10
162
20
-75.000000000000014
42
-0.41421356237309503
10
159
20
-72
10
159
20
71.999999999999986
42
-0.41421356237309592
10
162
20
74.999999999999986
10
183.91878562080521
20
75
42
0.3311555540316839
10
186.79210716115907
20
77.137432132676722
0
CIRCLE
5
107
100
AcDbEntity
8
0
100
AcDbCircle
10
130
20
-30.000000000000004
30
0
40
2.1000000000000001
210
0
220
-0
230
1
0
CIRCLE
5
108
100
AcDbEntity
8
0
100
AcDbCircle
10
-130
20
-30.000000000000004
30
0
40
2.1000000000000001
210
0
220
-0
230
1
0
LWPOLYLINE
5
109
100
AcDbEntity
8
0
100
AcDbPolyline
90
4
70
1
43
0.0
10
96
20
-55
10
90
20
-55
10
90
20
-35
10
96
20
-35
0
LWPOLYLINE
5
110
100
AcDbEntity
8
0
100
AcDbPolyline
90
4
70
1
43
0.0
10
-90
20
-55
10
-96
20
-55
10
-96
20
-35
10
-90
20
-35
0
LWPOLYLINE
5
111
100
AcDbEntity
8
0
100
AcDbPolyline
90
8
70
1
43
0.0
10
102.00000000000061
20
-24.999999999999609
10
-102.00000000000001
20
-25.000000000000089
42
-0.41421356237309331
10
-105
20
-22.000000000000082
10
-104.99999999999997
20
135
42
-0.41421356237309503
10
-101.99999999999996
20
138
10
101.99999999999996
20
138.00000000000014
42
-0.41421356237309331
10
104.99999999999997
20
135.00000000000017
10
105.00000000000063
20
-21.999999999999602
42
-0.41421356237309548
0
LWPOLYLINE
5
112
100
AcDbEntity
8
0
100
AcDbPolyline
90
4
70
1
43
0.0
10
45
20
220
10
45
20
195
10
37
20
195
10
37
20
220
0
CIRCLE
5
113
100
AcDbEntity
8
0
100
AcDbCircle
10
-28.000000000000004
20
216
30
0
40
3.1499999999999999
210
0
220
-0
230
1
0
CIRCLE
5
114
100
AcDbEntity
8
0
100
AcDbCircle
10
28.000000000000011
20
244.00000000000003
30
0
40
3.1499999999999999
210
0
220
-0
230
1
0
CIRCLE
5
115
100
AcDbEntity
8
0
100
AcDbCircle
10
-28.000000000000004
20
244.00000000000003
30
0
40
3.1499999999999999
210
0
220
-0
230
1
0
CIRCLE
5
116
100
AcDbEntity
8
0
100
AcDbCircle
10
28.000000000000004
20
216
30
0
40
3.1499999999999999
210
0
220
-0
230
1
0
LWPOLYLINE
5
117
100
AcDbEntity
8
0
100
AcDbPolyline
90
4
70
1
43
0.0
10
-66
20
147.85000000000008
10
-74.000000000000014
20
147.85000000000008
42
-0.99999999999999989
10
-74.000000000000014
20
152.15000000000006
10
-66
20
152.15000000000006
42
-0.99999999999999989
0
LWPOLYLINE
5
118
100
AcDbEntity
8
0
100
AcDbPolyline
90
4
70
1
43
0.0
10
74.000000000000014
20
147.85000000000002
10
66
20
147.85000000000002
42
-0.99999999999999989
10
66
20
152.15000000000003
10
74.000000000000014
20
152.15000000000003
42
-0.99999999999999989
0
LWPOLYLINE
5
119
100
AcDbEntity
8
0
100
AcDbPolyline
90
4
70
1
43
0.0
10
-132.15000431478251
20
96.000006099982443
10
-132.15000231434141
20
104.00000609998233
42
-1.0003866712496723
10
-127.85000295700586
20
103.99834373518968
10
-127.85000172972354
20
96.000006099982443
42
-0.99999999999999989
0
LWPOLYLINE
5
120
100
AcDbEntity
8
0
100
AcDbPolyline
90
4
70
1
43
0.0
10
132.15000000000001
20
104.00000000000003
10
132.15000000000001
20
96.000000000000014
42
-0.99999999999999989
10
127.85000000000002
20
96.000000000000014
10
127.85000000000002
20
104.00000000000003
42
-0.99999999999999989
0
LWPOLYLINE
5
121
100
AcDbEntity
8
0
100
AcDbPolyline
90
4
70
1
43
0.0
10
2.1499999999999932
20
203.99999999999994
10
2.1499999999999924
20
195.99999999999994
42
-0.99999999999999989
10
-2.1500000000000048
20
195.99999999999994
10
-2.1500000000000048
20
203.99999999999989
42
-0.99999999999999989
0
CIRCLE
5
122
100
AcDbEntity
8
0
100
AcDbCircle
10
0
20
-40
30
0
40
1.6000000000000003
210
0
220
-0
230
1
0
CIRCLE
5
123
100
AcDbEntity
8
0
100
AcDbCircle
10
-33.000000000000007
20
-73
30
0
40
1.6000000000000003
210
0
220
-0
230
1
0
CIRCLE
5
124
100
AcDbEntity
8
0
100
AcDbCircle
10
33.000000000000007
20
-31.499999999999993
30
0
40
1.6000000000000003
210
0
220
-0
230
1
0
CIRCLE
5
125
100
AcDbEntity
8
0
100
AcDbCircle
10
-65
20
-54.500000000000021
30
0
40
1.6000000000000003
210
0
220
-0
230
1
0
CIRCLE
5
126
100
AcDbEntity
8
0
100
AcDbCircle
10
114.50000000000003
20
115
30
0
40
1.6000000000000003
210
0
220
-0
230
1
0
CIRCLE
5
127
100
AcDbEntity
8
0
100
AcDbCircle
10
1.2831960872750218e-14
20
287
30
0
40
1.6000000000000003
210
0
220
-0
230
1
0
CIRCLE
5
128
100
AcDbEntity
8
0
100
AcDbCircle
10
130.00000000000003
20
15.600000000000001
30
0
40
1.6000000000000003
210
0
220
-0
230
1
0
CIRCLE
5
129
100
AcDbEntity
8
0
100
AcDbCircle
10
-130
20
-15.599999999999998
30
0
40
1.6000000000000003
210
0
220
-0
230
1
0
CIRCLE
5
130
100
AcDbEntity
8
0
100
AcDbCircle
10
110.95000000000002
20
15.600000000000001
30
0
40
1.6000000000000003
210
0
220
-0
230
1
0
CIRCLE
5
131
100
AcDbEntity
8
0
100
AcDbCircle
10
149.05000000000001
20
-15.600000000000001
30
0
40
1.6000000000000003
210
0
220
-0
230
1
0
CIRCLE
5
132
100
AcDbEntity
8
0
100
AcDbCircle
10
-110.95
20
15.599999999999998
30
0
40
1.6000000000000003
210
0
220
-0
230
1
0
CIRCLE
5
133
100
AcDbEntity
8
0
100
AcDbCircle
10
-149.04999999999998
20
15.599999999999998
30
0
40
1.6000000000000003
210
0
220
-0
230
1
0
CIRCLE
5
134
100
AcDbEntity
8
0
100
AcDbCircle
10
-166.27687752661222
20
-96.000000000000028
30
0
40
1.6000000000000003
210
0
220
-0
230
1
0
CIRCLE
5
135
100
AcDbEntity
8
0
100
AcDbCircle
10
166.27687752661214
20
-96.000000000000014
30
0
40
1.6000000000000003
210
0
220
-0
230
1
0
CIRCLE
5
136
100
AcDbEntity
8
0
100
AcDbCircle
10
0
20
-192.00000000000003
30
0
40
1.6000000000000003
210
0
220
-0
230
1
0
CIRCLE
5
137
100
AcDbEntity
8
0
100
AcDbCircle
10
-149.04999999999998
20
-15.599999999999998
30
0
40
1.6000000000000003
210
0
220
-0
230
1
0
CIRCLE
5
138
100
AcDbEntity
8
0
100
AcDbCircle
10
-110.95
20
-15.599999999999998
30
0
40
1.6000000000000003
210
0
220
-0
230
1
0
CIRCLE
5
139
100
AcDbEntity
8
0
100
AcDbCircle
10
110.95000000000002
20
-15.600000000000001
30
0
40
1.6000000000000003
210
0
220
-0
230
1
0
CIRCLE
5
140
100
AcDbEntity
8
0
100
AcDbCircle
10
149.05000000000001
20
15.600000000000001
30
0
40
1.6000000000000003
210
0
220
-0
230
1
0
CIRCLE
5
141
100
AcDbEntity
8
0
100
AcDbCircle
10
130.00000000000003
20
-15.600000000000001
30
0
40
1.6000000000000003
210
0
220
-0
230
1
0
CIRCLE
5
142
100
AcDbEntity
8
0
100
AcDbCircle
10
-130
20
15.599999999999998
30
0
40
1.6000000000000003
210
0
220
-0
230
1
0
CIRCLE
5
143
100
AcDbEntity
8
0
100
AcDbCircle
10
154.13520720775441
20
131.283179059221
30
0
40
1.6000000000000003
210
0
220
-0
230
1
0
CIRCLE
5
144
100
AcDbEntity
8
0
100
AcDbCircle
10
-154.13520720775418
20
131.28317905922083
30
0
40
1.6000000000000003
210
0
220
-0
230
1
0
CIRCLE
5
145
100
AcDbEntity
8
0
100
AcDbCircle
10
65
20
-54.5
30
0
40
1.6000000000000003
210
0
220
-0
230
1
0
CIRCLE
5
146
100
AcDbEntity
8
0
100
AcDbCircle
10
-114.50000000000001
20
115
30
0
40
1.6000000000000003
210
0
220
-0
230
1
0
CIRCLE
5
147
100
AcDbEntity
8
0
100
AcDbCircle
10
-33.000000000000007
20
-31.499999999999993
30
0
40
1.6000000000000003
210
0
220
-0
230
1
0
CIRCLE
5
148
100
AcDbEntity
8
0
100
AcDbCircle
10
33.000000000000007
20
-73
30
0
40
1.6000000000000003
210
0
220
-0
230
1
0
CIRCLE
5
149
100
AcDbEntity
8
0
100
AcDbCircle
10
0
20
-125
30
0
40
1.6000000000000003
210
0
220
-0
230
1
0
ENDSEC
0
SECTION
2
OBJECTS
0
DICTIONARY
5
C
100
AcDbDictionary
3
ACAD_GROUP
350
D
3
ACAD_MLINESTYLE
350
17
0
DICTIONARY
5
D
100
AcDbDictionary
0
DICTIONARY
5
1A
330
C
100
AcDbDictionary
0
DICTIONARY
5
17
100
AcDbDictionary
0
ENDSEC
0
EOF
