0
SECTION
2
HEADER
9
$INSUNITS
70
4
9
$ACADVER
1
AC1014
9
$HANDSEED
5
FFFF
0
ENDSEC
0
SECTION
2
TABLES
0
TABLE
2
VPORT
5
8
100
AcDbSymbolTable
0
ENDTAB
0
TABLE
2
LTYPE
5
5
100
AcDbSymbolTable
0
LTYPE
5
14
100
AcDbSymbolTableRecord
100
AcDbLinetypeTableRecord
2
BYBLOCK
70
0
0
LTYPE
5
15
100
AcDbSymbolTableRecord
100
AcDbLinetypeTableRecord
2
BYLAYER
70
0
0
ENDTAB
0
TABLE
2
LAYER
5
2
100
AcDbSymbolTable
70
2
0
LAYER
5
50
100
AcDbSymbolTableRecord
100
AcDbLayerTableRecord
2
0
70
0
6
CONTINUOUS
0
ENDTAB
0
TABLE
2
STYLE
5
3
100
AcDbSymbolTable
70
1
0
STYLE
5
11
100
AcDbSymbolTableRecord
100
AcDbTextStyleTableRecord
2
STANDARD
70
0
0
ENDTAB
0
TABLE
2
VIEW
5
6
100
AcDbSymbolTable
70
0
0
ENDTAB
0
TABLE
2
UCS
5
7
100
AcDbSymbolTable
70
0
0
ENDTAB
0
TABLE
2
APPID
5
9
100
AcDbSymbolTable
70
2
0
APPID
5
12
100
AcDbSymbolTableRecord
100
AcDbRegAppTableRecord
2
ACAD
70
0
0
ENDTAB
0
TABLE
2
DIMSTYLE
5
A
100
AcDbSymbolTable
70
1
0
ENDTAB
0
TABLE
2
BLOCK_RECORD
5
1
100
AcDbSymbolTable
70
1
0
BLOCK_RECORD
5
1F
100
AcDbSymbolTableRecord
100
AcDbBlockTableRecord
2
*MODEL_SPACE
0
BLOCK_RECORD
5
1B
100
AcDbSymbolTableRecord
100
AcDbBlockTableRecord
2
*PAPER_SPACE
0
ENDTAB
0
ENDSEC
0
SECTION
2
BLOCKS
0
BLOCK
5
20
100
AcDbEntity
100
AcDbBlockBegin
2
*MODEL_SPACE
0
ENDBLK
5
21
100
AcDbEntity
100
AcDbBlockEnd
0
BLOCK
5
1C
100
AcDbEntity
100
AcDbBlockBegin
2
*PAPER_SPACE
0
ENDBLK
5
1D
100
AcDbEntity
100
AcDbBlockEnd
0
ENDSEC
0
SECTION
2
ENTITIES
0
CIRCLE
5
100
100
AcDbEntity
8
0
100
AcDbCircle
10
-132.73368600650952
20
156.81444002108142
30
0
40
1.6000000000000003
210
0
220
-0
230
1
0
CIRCLE
5
101
100
AcDbEntity
8
0
100
AcDbCircle
10
178.2013048376734
20
90.798099947909691
30
0
40
1.6000000000000003
210
0
220
-0
230
1
0
CIRCLE
5
102
100
AcDbEntity
8
0
100
AcDbCircle
10
-178.20130483767144
20
90.798099947913485
30
0
40
1.6000000000000003
210
0
220
-0
230
1
0
CIRCLE
5
103
100
AcDbEntity
8
0
100
AcDbCircle
10
132.73368600650983
20
156.81444002108117
30
0
40
1.6000000000000003
210
0
220
-0
230
1
0
LWPOLYLINE
5
104
100
AcDbEntity
8
0
100
AcDbPolyline
90
4
70
1
43
0.0
10
-113.00000000006713
20
152.00000000001566
10
-97.00000000006716
20
152.00000000001569
10
-97.000000000067132
20
148.00000000001569
10
-113.00000000006716
20
148.00000000001569
0
LWPOLYLINE
5
105
100
AcDbEntity
8
0
100
AcDbPolyline
90
4
70
1
43
0.0
10
96.999999999966548
20
-68.00000000006267
10
112.99999999996655
20
-68.000000000062684
10
112.99999999996655
20
-72.000000000062656
10
96.999999999966548
20
-72.00000000006267
0
LWPOLYLINE
5
106
100
AcDbEntity
8
0
100
AcDbPolyline
90
4
70
1
43
0.0
10
-132.00000000001216
20
67.999999999903537
10
-128.00000000001216
20
67.999999999903523
10
-128.00000000001216
20
51.999999999903544
10
-132.00000000001216
20
51.999999999903537
0
LWPOLYLINE
5
107
100
AcDbEntity
8
0
100
AcDbPolyline
90
4
70
1
43
0.0
10
96.999999999916753
20
152.00000000001262
10
112.99999999991675
20
152.00000000001265
10
112.99999999991675
20
148.00000000001265
10
96.999999999916753
20
148.00000000001262
0
LWPOLYLINE
5
108
100
AcDbEntity
8
0
100
AcDbPolyline
90
4
70
1
43
0.0
10
127.99999999998805
20
67.99999999990149
10
131.99999999998806
20
67.99999999990149
10
131.99999999998806
20
51.999999999901505
10
127.99999999998805
20
51.999999999901505
0
LWPOLYLINE
5
109
100
AcDbEntity
8
0
100
AcDbPolyline
90
4
70
1
43
0.0
10
-113.0000000000217
20
-68.000000000039208
10
-97.0000000000217
20
-68.000000000039208
10
-97.000000000021657
20
-72.000000000039208
10
-113.0000000000217
20
-72.000000000039222
0
LWPOLYLINE
5
110
100
AcDbEntity
8
0
100
AcDbPolyline
90
34
70
1
43
0.0
10
-66.121320343560583
20
186.12132034355966
42
0.19891236737965556
10
-68.242640687120186
20
187
10
-121.30703178865723
20
187
42
0.23763607023584174
10
-123.71767993589783
20
185.78571428571465
10
-168.74537030686398
20
125.00000000004439
42
0.048889922225852867
10
-189.80439602233912
20
89.857060104405832
42
0.18553525868230356
10
-189.96622619094569
20
87.710819949877219
10
-186.79210716118439
20
77.137432132677077
42
0.33115555403172209
10
-183.91878562083042
20
75.000000000000028
10
-162
20
75.000000000000014
42
-0.41421356237309503
10
-159
20
72.000000000000014
10
-159
20
-72
42
-0.41421356237309503
10
-162
20
-74.999999999999986
10
-163.33095236359827
20
-75
42
0.5516151704668355
10
-166.03809522045353
20
-79.292817679558027
42
0.63062143769729062
10
166.03809522045344
20
-79.292817679557999
42
0.55161517046683373
10
163.33095236359824
20
-75
10
162
20
-75
42
-0.41421356237309503
10
159
20
-72
10
159
20
72
42
-0.41421356237309503
10
162
20
74.999999999999986
10
183.9187856208344
20
75.000000000000014
42
0.33115555403165198
10
186.79210716118817
20
77.137432132676466
10
189.96622619094947
20
87.71081994986838
42
0.18553525868230805
10
189.8043960223431
20
89.857060104397448
42
0.048889922225863754
10
168.745370306864
20
125.00000000004427
10
123.71767993589782
20
185.78571428571473
42
0.23763607023583042
10
121.30703178865724
20
187.00000000000003
10
68.24264068711912
20
187.00000000000003
42
0.19891236737966098
10
66.121320343559475
20
186.12132034355963
10
32.878679656440404
20
152.8786796564404
42
-0.19891236737965823
10
30.757359312880752
20
152.00000000000003
10
-30.757359312880752
20
152.00000000000006
42
-0.19891236737965406
10
-32.878679656440362
20
152.87867965644037
0
CIRCLE
5
111
100
AcDbEntity
8
0
100
AcDbCircle
10
92.758328259738562
20
-134.66213737124835
30
0
40
2.1499999999999999
210
0
220
-0
230
1
0
CIRCLE
5
112
100
AcDbEntity
8
0
100
AcDbCircle
10
-92.758331800195307
20
-134.66214350304108
30
0
40
2.1499999999999999
210
0
220
-0
230
1
0
CIRCLE
5
113
100
AcDbEntity
8
0
100
AcDbCircle
10
30.999999999999996
20
138
30
0
40
2.1499999999999999
210
0
220
-0
230
1
0
CIRCLE
5
114
100
AcDbEntity
8
0
100
AcDbCircle
10
-15
20
52
30
0
40
2.1499999999999999
210
0
220
-0
230
1
0
CIRCLE
5
115
100
AcDbEntity
8
0
100
AcDbCircle
10
30.999999999999996
20
52
30
0
40
2.1499999999999999
210
0
220
-0
230
1
0
CIRCLE
5
116
100
AcDbEntity
8
0
100
AcDbCircle
10
-15.000000000000007
20
138
30
0
40
2.1499999999999999
210
0
220
-0
230
1
0
CIRCLE
5
117
100
AcDbEntity
8
0
100
AcDbCircle
10
-78.901925339649921
20
-142.6621435030508
30
0
40
2.1499999999999999
210
0
220
-0
230
1
0
CIRCLE
5
118
100
AcDbEntity
8
0
100
AcDbCircle
10
78.901924247635236
20
-142.66214161208416
30
0
40
2.1499999999999999
210
0
220
-0
230
1
0
CIRCLE
5
119
100
AcDbEntity
8
0
100
AcDbCircle
10
108.99999999999994
20
65
30
0
40
1.6000000000000003
210
0
220
-0
230
1
0
CIRCLE
5
120
100
AcDbEntity
8
0
100
AcDbCircle
10
105
20
142.49999999995563
30
0
40
1.6000000000000003
210
0
220
-0
230
1
0
CIRCLE
5
121
100
AcDbEntity
8
0
100
AcDbCircle
10
-105
20
-63.000000000050427
30
0
40
1.6000000000000003
210
0
220
-0
230
1
0
CIRCLE
5
122
100
AcDbEntity
8
0
100
AcDbCircle
10
123.00000000001407
20
60
30
0
40
1.6000000000000003
210
0
220
-0
230
1
0
CIRCLE
5
123
100
AcDbEntity
8
0
100
AcDbCircle
10
105
20
-63.000000000050413
30
0
40
1.6000000000000003
210
0
220
-0
230
1
0
CIRCLE
5
124
100
AcDbEntity
8
0
100
AcDbCircle
10
-122.99999999998607
20
60
30
0
40
1.6000000000000003
210
0
220
-0
230
1
0
CIRCLE
5
125
100
AcDbEntity
8
0
100
AcDbCircle
10
-105
20
142.49999999995563
30
0
40
1.6000000000000003
210
0
220
-0
230
1
0
CIRCLE
5
126
100
AcDbEntity
8
0
100
AcDbCircle
10
71.999999999999943
20
65
30
0
40
1.6000000000000003
210
0
220
-0
230
1
0
LWPOLYLINE
5
127
100
AcDbEntity
8
0
100
AcDbPolyline
90
4
70
1
43
0.0
10
-72.000000000000938
20
175.39999999999998
10
-87.000000000000895
20
175.39999999999998
42
-0.99999999999999989
10
-87.000000000000938
20
178.59999999999999
10
-72.000000000000966
20
178.59999999999999
42
-0.99999999999999989
0
LWPOLYLINE
5
128
100
AcDbEntity
8
0
100
AcDbPolyline
90
4
70
1
43
0.0
10
19.999999999999996
20
107.00000000000001
10
20
20
119
10
28
20
119
10
28
20
107.00000000000001
0
LWPOLYLINE
5
129
100
AcDbEntity
8
0
100
AcDbPolyline
90
4
70
1
43
0.0
10
137.62094354747495
20
-71.947730312377928
10
127.79111901601219
20
-65.064813076157947
10
132.3797305068251
20
-58.511596721849912
10
142.20955503828819
20
-65.394513958069382
0
LWPOLYLINE
5
130
100
AcDbEntity
8
0
100
AcDbPolyline
90
4
70
1
43
0.0
10
114.67788609341014
20
-104.71381208392148
10
110.08927460259764
20
-111.26702843823067
10
100.25945007113447
20
-104.3841112020106
10
104.84806156194693
20
-97.830894847702183
0
LWPOLYLINE
5
131
100
AcDbEntity
8
0
100
AcDbPolyline
90
4
70
1
43
0.0
10
-20.000000000000004
20
107.00000000000001
10
-28
20
107.00000000000001
10
-28
20
119
10
-20
20
119
0
LWPOLYLINE
5
132
100
AcDbEntity
8
0
100
AcDbPolyline
90
4
70
1
43
0.0
10
-118.60000000000093
20
162
42
0.99999999999999989
10
-115.40000000000093
20
161.99999999999991
10
-115.40000000000093
20
177
42
0.99999999999999989
10
-118.60000000000093
20
177
0
LWPOLYLINE
5
133
100
AcDbEntity
8
0
100
AcDbPolyline
90
4
70
1
43
0.0
10
118.59999999999984
20
177
10
118.59999999999984
20
161.99999999999991
42
-0.99999999999999989
10
115.39999999999984
20
162
10
115.39999999999984
20
177.00000000000006
42
-0.99999999999999989
0
LWPOLYLINE
5
134
100
AcDbEntity
8
0
100
AcDbPolyline
90
4
70
1
43
0.0
10
-127.79111901610328
20
-65.064813075978591
10
-137.62094354757613
20
-71.947730312184504
10
-142.20955503838053
20
-65.394513957869009
10
-132.37973050690735
20
-58.511596721663423
0
LWPOLYLINE
5
135
100
AcDbEntity
8
0
100
AcDbPolyline
90
4
70
1
43
0.0
10
23.214204448387292
20
-98.151073308668771
10
18.366108245917783
20
-106.89727038005933
10
12.243770295944405
20
-103.5036030383306
42
-6.8541019662497167
10
17.091866498413886
20
-94.757405966940098
0
LWPOLYLINE
5
136
100
AcDbEntity
8
0
100
AcDbPolyline
90
4
70
1
43
0.0
10
-104.84806156208423
20
-97.83089484755466
10
-100.25945007128047
20
-104.38411120186981
10
-110.08927460275305
20
-111.26702843807591
10
-114.67788609355739
20
-104.71381208376032
0
LWPOLYLINE
5
137
100
AcDbEntity
8
0
100
AcDbPolyline
90
4
70
1
43
0.0
10
71.999999999999829
20
178.60000000000002
42
0.99999999999999989
10
71.999999999999801
20
175.40000000000003
10
86.999999999999829
20
175.40000000000003
42
0.99999999999999989
10
86.999999999999829
20
178.60000000000002
0
LWPOLYLINE
5
138
100
AcDbEntity
8
0
100
AcDbPolyline
90
8
70
1
43
0.0
10
75
20
58.000000000000007
10
75
20
72
42
-0.41421356237309592
10
78
20
75
10
102.99999999999997
20
75.000000000000014
42
-0.41421356237309503
10
105.99999999999997
20
72.000000000000014
10
105.99999999999997
20
58.000000000000014
42
-0.41421356237309503
10
102.99999999999999
20
55.000000000000014
10
77.999999999999986
20
55.000000000000014
42
-0.41421356237309503
0
CIRCLE
5
139
100
AcDbEntity
8
0
100
AcDbCircle
10
-110
20
119.00000000000003
30
0
40
1.6000000000000003
210
0
220
-0
230
1
0
CIRCLE
5
140
100
AcDbEntity
8
0
100
AcDbCircle
10
15
20
125
30
0
40
1.6000000000000003
210
0
220
-0
230
1
0
CIRCLE
5
141
100
AcDbEntity
8
0
100
AcDbCircle
10
53.509612756886263
20
-122.68138757607497
30
0
40
1.6000000000000003
210
0
220
-0
230
1
0
CIRCLE
5
142
100
AcDbEntity
8
0
100
AcDbCircle
10
40
20
-17
30
0
40
1.6000000000000003
210
0
220
-0
230
1
0
CIRCLE
5
143
100
AcDbEntity
8
0
100
AcDbCircle
10
66
20
-45.500000000000007
30
0
40
1.6000000000000003
210
0
220
-0
230
1
0
CIRCLE
5
144
100
AcDbEntity
8
0
100
AcDbCircle
10
-30.000000000000007
20
7.9999999999999982
30
0
40
1.6000000000000003
210
0
220
-0
230
1
0
CIRCLE
5
145
100
AcDbEntity
8
0
100
AcDbCircle
10
30.000000000000014
20
-51.999999999999986
30
0
40
1.6000000000000003
210
0
220
-0
230
1
0
CIRCLE
5
146
100
AcDbEntity
8
0
100
AcDbCircle
10
75
20
40
30
0
40
1.6000000000000003
210
0
220
-0
230
1
0
CIRCLE
5
147
100
AcDbEntity
8
0
100
AcDbCircle
10
110
20
20
30
0
40
1.6000000000000003
210
0
220
-0
230
1
0
CIRCLE
5
148
100
AcDbEntity
8
0
100
AcDbCircle
10
-122.46068054104612
20
-104.05951048041615
30
0
40
1.6000000000000003
210
0
220
-0
230
1
0
CIRCLE
5
149
100
AcDbEntity
8
0
100
AcDbCircle
10
122.46068054089972
20
-104.05951048058832
30
0
40
1.6000000000000003
210
0
220
-0
230
1
0
CIRCLE
5
150
100
AcDbEntity
8
0
100
AcDbCircle
10
-77
20
44.5
30
0
40
1.6000000000000003
210
0
220
-0
230
1
0
CIRCLE
5
151
100
AcDbEntity
8
0
100
AcDbCircle
10
-45
20
-15
30
0
40
1.6000000000000003
210
0
220
-0
230
1
0
CIRCLE
5
152
100
AcDbEntity
8
0
100
AcDbCircle
10
80
20
-40
30
0
40
1.6000000000000003
210
0
220
-0
230
1
0
CIRCLE
5
153
100
AcDbEntity
8
0
100
AcDbCircle
10
-60
20
-40
30
0
40
1.6000000000000003
210
0
220
-0
230
1
0
CIRCLE
5
154
100
AcDbEntity
8
0
100
AcDbCircle
10
-104.15064284915276
20
-130.39420505546568
30
0
40
1.6000000000000003
210
0
220
-0
230
1
0
CIRCLE
5
155
100
AcDbEntity
8
0
100
AcDbCircle
10
60.849368730993014
20
-155.39419825080248
30
0
40
1.6000000000000003
210
0
220
-0
230
1
0
CIRCLE
5
156
100
AcDbEntity
8
0
100
AcDbCircle
10
104.15063126881384
20
-130.39418499819175
30
0
40
1.6000000000000003
210
0
220
-0
230
1
0
CIRCLE
5
157
100
AcDbEntity
8
0
100
AcDbCircle
10
31
20
-163
30
0
40
1.6000000000000003
210
0
220
-0
230
1
0
CIRCLE
5
158
100
AcDbEntity
8
0
100
AcDbCircle
10
-25
20
-106.00000000000001
30
0
40
1.6000000000000003
210
0
220
-0
230
1
0
CIRCLE
5
159
100
AcDbEntity
8
0
100
AcDbCircle
10
25
20
-106.00000000000001
30
0
40
1.6000000000000003
210
0
220
-0
230
1
0
CIRCLE
5
160
100
AcDbEntity
8
0
100
AcDbCircle
10
-31
20
-163
30
0
40
1.6000000000000003
210
0
220
-0
230
1
0
CIRCLE
5
161
100
AcDbEntity
8
0
100
AcDbCircle
10
93.150625437665099
20
-111.34162948155058
30
0
40
1.6000000000000003
210
0
220
-0
230
1
0
CIRCLE
5
162
100
AcDbEntity
8
0
100
AcDbCircle
10
-60.849357151079957
20
-155.39417819333804
30
0
40
1.6000000000000003
210
0
220
-0
230
1
0
CIRCLE
5
163
100
AcDbEntity
8
0
100
AcDbCircle
10
-93.150654668507286
20
-111.34163934834544
30
0
40
1.6000000000000003
210
0
220
-0
230
1
0
CIRCLE
5
164
100
AcDbEntity
8
0
100
AcDbCircle
10
-102
20
-40
30
0
40
1.6000000000000003
210
0
220
-0
230
1
0
CIRCLE
5
165
100
AcDbEntity
8
0
100
AcDbCircle
10
122
20
-40
30
0
40
1.6000000000000003
210
0
220
-0
230
1
0
CIRCLE
5
166
100
AcDbEntity
8
0
100
AcDbCircle
10
-77
20
-15
30
0
40
1.6000000000000003
210
0
220
-0
230
1
0
CIRCLE
5
167
100
AcDbEntity
8
0
100
AcDbCircle
10
-45
20
44.5
30
0
40
1.6000000000000003
210
0
220
-0
230
1
0
CIRCLE
5
168
100
AcDbEntity
8
0
100
AcDbCircle
10
139.66797363144838
20
-79.484949151930635
30
0
40
1.6000000000000003
210
0
220
-0
230
1
0
CIRCLE
5
169
100
AcDbEntity
8
0
100
AcDbCircle
10
-139.6679736315603
20
-79.484949151734313
30
0
40
1.6000000000000003
210
0
220
-0
230
1
0
CIRCLE
5
170
100
AcDbEntity
8
0
100
AcDbCircle
10
75
20
20.000000000000007
30
0
40
1.6000000000000003
210
0
220
-0
230
1
0
CIRCLE
5
171
100
AcDbEntity
8
0
100
AcDbCircle
10
110
20
40
30
0
40
1.6000000000000003
210
0
220
-0
230
1
0
CIRCLE
5
172
100
AcDbEntity
8
0
100
AcDbCircle
10
30
20
8.000000000000016
30
0
40
1.6000000000000003
210
0
220
-0
230
1
0
CIRCLE
5
173
100
AcDbEntity
8
0
100
AcDbCircle
10
-29.999999999999986
20
-52.000000000000014
30
0
40
1.6000000000000003
210
0
220
-0
230
1
0
CIRCLE
5
174
100
AcDbEntity
8
0
100
AcDbCircle
10
40
20
-45.500000000000007
30
0
40
1.6000000000000003
210
0
220
-0
230
1
0
CIRCLE
5
175
100
AcDbEntity
8
0
100
AcDbCircle
10
66
20
-17
30
0
40
1.6000000000000003
210
0
220
-0
230
1
0
CIRCLE
5
176
100
AcDbEntity
8
0
100
AcDbCircle
10
-53.509631482470333
20
-122.68136071900025
30
0
40
1.6000000000000003
210
0
220
-0
230
1
0
CIRCLE
5
177
100
AcDbEntity
8
0
100
AcDbCircle
10
-15
20
125
30
0
40
1.6000000000000003
210
0
220
-0
230
1
0
CIRCLE
5
178
100
AcDbEntity
8
0
100
AcDbCircle
10
-110
20
75
30
0
40
1.6000000000000003
210
0
220
-0
230
1
0
ENDSEC
0
SECTION
2
OBJECTS
0
DICTIONARY
5
C
100
AcDbDictionary
3
ACAD_GROUP
350
D
3
ACAD_MLINESTYLE
350
17
0
DICTIONARY
5
D
100
AcDbDictionary
0
DICTIONARY
5
1A
330
C
100
AcDbDictionary
0
DICTIONARY
5
17
100
AcDbDictionary
0
ENDSEC
0
EOF
