0
SECTION
2
HEADER
9
$INSUNITS
70
4
9
$ACADVER
1
AC1014
9
$HANDSEED
5
FFFF
0
ENDSEC
0
SECTION
2
TABLES
0
TABLE
2
VPORT
5
8
100
AcDbSymbolTable
0
ENDTAB
0
TABLE
2
LTYPE
5
5
100
AcDbSymbolTable
0
LTYPE
5
14
100
AcDbSymbolTableRecord
100
AcDbLinetypeTableRecord
2
BYBLOCK
70
0
0
LTYPE
5
15
100
AcDbSymbolTableRecord
100
AcDbLinetypeTableRecord
2
BYLAYER
70
0
0
ENDTAB
0
TABLE
2
LAYER
5
2
100
AcDbSymbolTable
70
2
0
LAYER
5
50
100
AcDbSymbolTableRecord
100
AcDbLayerTableRecord
2
0
70
0
6
CONTINUOUS
0
ENDTAB
0
TABLE
2
STYLE
5
3
100
AcDbSymbolTable
70
1
0
STYLE
5
11
100
AcDbSymbolTableRecord
100
AcDbTextStyleTableRecord
2
STANDARD
70
0
0
ENDTAB
0
TABLE
2
VIEW
5
6
100
AcDbSymbolTable
70
0
0
ENDTAB
0
TABLE
2
UCS
5
7
100
AcDbSymbolTable
70
0
0
ENDTAB
0
TABLE
2
APPID
5
9
100
AcDbSymbolTable
70
2
0
APPID
5
12
100
AcDbSymbolTableRecord
100
AcDbRegAppTableRecord
2
ACAD
70
0
0
ENDTAB
0
TABLE
2
DIMSTYLE
5
A
100
AcDbSymbolTable
70
1
0
ENDTAB
0
TABLE
2
BLOCK_RECORD
5
1
100
AcDbSymbolTable
70
1
0
BLOCK_RECORD
5
1F
100
AcDbSymbolTableRecord
100
AcDbBlockTableRecord
2
*MODEL_SPACE
0
BLOCK_RECORD
5
1B
100
AcDbSymbolTableRecord
100
AcDbBlockTableRecord
2
*PAPER_SPACE
0
ENDTAB
0
ENDSEC
0
SECTION
2
BLOCKS
0
BLOCK
5
20
100
AcDbEntity
100
AcDbBlockBegin
2
*MODEL_SPACE
0
ENDBLK
5
21
100
AcDbEntity
100
AcDbBlockEnd
0
BLOCK
5
1C
100
AcDbEntity
100
AcDbBlockBegin
2
*PAPER_SPACE
0
ENDBLK
5
1D
100
AcDbEntity
100
AcDbBlockEnd
0
ENDSEC
0
SECTION
2
ENTITIES
0
CIRCLE
5
100
100
AcDbEntity
8
0
100
AcDbCircle
10
75
20
32.000000000000007
30
0
40
1.6000000000000003
210
0
220
-0
230
1
0
CIRCLE
5
101
100
AcDbEntity
8
0
100
AcDbCircle
10
95.5
20
9
30
0
40
1.6000000000000003
210
0
220
-0
230
1
0
CIRCLE
5
102
100
AcDbEntity
8
0
100
AcDbCircle
10
75
20
9
30
0
40
1.6000000000000003
210
0
220
-0
230
1
0
CIRCLE
5
103
100
AcDbEntity
8
0
100
AcDbCircle
10
95.5
20
32.000000000000007
30
0
40
1.6000000000000003
210
0
220
-0
230
1
0
LWPOLYLINE
5
104
100
AcDbEntity
8
0
100
AcDbPolyline
90
4
70
1
43
0.0
10
78.250000000000014
20
10.100000000000016
10
92.250000000000014
20
10.100000000000016
10
92.250000000000014
20
6.1000000000000201
10
78.250000000000014
20
6.1000000000000201
0
CIRCLE
5
105
100
AcDbEntity
8
0
100
AcDbCircle
10
-82.999999999999986
20
42
30
0
40
1.1499999999999999
210
0
220
-0
230
1
0
CIRCLE
5
106
100
AcDbEntity
8
0
100
AcDbCircle
10
-82.999999999999986
20
7.9999999999999982
30
0
40
1.1499999999999999
210
0
220
-0
230
1
0
CIRCLE
5
107
100
AcDbEntity
8
0
100
AcDbCircle
10
-107.99999999999999
20
15
30
0
40
4.4999999999999929
210
0
220
-0
230
1
0
CIRCLE
5
108
100
AcDbEntity
8
0
100
AcDbCircle
10
105
20
36.499999999999993
30
0
40
1.6000000000000003
210
0
220
-0
230
1
0
CIRCLE
5
109
100
AcDbEntity
8
0
100
AcDbCircle
10
-65
20
5
30
0
40
1.6000000000000003
210
0
220
-0
230
1
0
CIRCLE
5
110
100
AcDbEntity
8
0
100
AcDbCircle
10
65
20
5
30
0
40
1.6000000000000003
210
0
220
-0
230
1
0
CIRCLE
5
111
100
AcDbEntity
8
0
100
AcDbCircle
10
123
20
25
30
0
40
1.6000000000000003
210
0
220
-0
230
1
0
CIRCLE
5
112
100
AcDbEntity
8
0
100
AcDbCircle
10
-122.99999999999999
20
25
30
0
40
1.6000000000000003
210
0
220
-0
230
1
0
CIRCLE
5
113
100
AcDbEntity
8
0
100
AcDbCircle
10
-105
20
36.500000000000028
30
0
40
1.6000000000000003
210
0
220
-0
230
1
0
LWPOLYLINE
5
114
100
AcDbEntity
8
0
100
AcDbPolyline
90
40
70
1
43
0.0
10
-38
20
0
10
-38
20
12.000000000000002
10
38
20
12.000000000000002
10
38
20
0
10
132
20
0
10
132
20
10
10
128
20
9.9999999999999858
10
128
20
19.999999999999986
10
132
20
20.000000000000018
10
132
20
30.000000000000018
10
128
20
30.000000000000021
10
128
20
40.000000000000014
10
132
20
40.000000000000028
10
132
20
50.000000000000028
10
113
20
49.999999999999574
10
113
20
54.999999999999574
10
97
20
54.999999999999574
10
97
20
49.999999999999545
10
77.000000000000028
20
49.999999999999176
10
76.999999999999972
20
41.999999999997549
10
51.999999999999972
20
41.999999999997996
10
52.000000000000064
20
49.999999999997122
10
-60.000000000000071
20
49.999999999997122
10
-60.000000000000014
20
41.999999999999986
10
-72.000000000000014
20
41.999999999997122
10
-72.000000000000014
20
49.999999999997122
10
-97
20
49.999999999999993
10
-97
20
55.000000000000014
10
-113
20
55.000000000000028
10
-113
20
50.000000000000028
10
-132
20
49.999999999997122
10
-132
20
39.99999999999595
10
-128
20
39.999999999996014
10
-128
20
30.000000000000306
10
-132
20
30.000000000000483
10
-132
20
20.000000000023288
10
-128
20
20.000000000022933
10
-128
20
9.9999999999991296
10
-132
20
9.9999999999991296
10
-132
20
0
0
ENDSEC
0
SECTION
2
OBJECTS
0
DICTIONARY
5
C
100
AcDbDictionary
3
ACAD_GROUP
350
D
3
ACAD_MLINESTYLE
350
17
0
DICTIONARY
5
D
100
AcDbDictionary
0
DICTIONARY
5
1A
330
C
100
AcDbDictionary
0
DICTIONARY
5
17
100
AcDbDictionary
0
ENDSEC
0
EOF
